<svg id="Laag_1" data-name="Laag 1" xmlns="http://www.w3.org/2000/svg" viewBox="0 0 92.55 92.54"><defs><style>.cls-1{fill:#fff;}</style></defs><path class="cls-1" d="M77.51,34.72A4.69,4.69,0,0,1,71.07,34H61.72a1.11,1.11,0,0,0-1.1,1.11V61.66a2.43,2.43,0,0,1-2.42,2.42H54.75L41.21,44.41a51.78,51.78,0,0,1-3-5h-.1s.35,3,.35,5V60.67a3.41,3.41,0,0,1-3.41,3.41h-13a4.74,4.74,0,0,1-2.81,1.67,33.29,33.29,0,0,0,58.23-31Z"/><path class="cls-1" d="M18.42,56.41a4.71,4.71,0,0,1,3.93,2.1h.87c.62,0,8.71-.49,8.71-1.1V30.89a2.42,2.42,0,0,1,2.42-2.42h3.5L51.34,48.18c1.4,2,3,5,3,5h.1s-.35-3-.35-5V31.88c0-2.36,1-3.41,3.41-3.41H70.67a4.65,4.65,0,0,1,2.41-1.93,33.3,33.3,0,0,0-58,31.3A4.72,4.72,0,0,1,18.42,56.41Z"/></svg>